<mxfile host="app.diagrams.net" modified="2024-04-23T17:39:04.314Z" agent="Mozilla/5.0 (Windows NT 10.0; Win64; x64) AppleWebKit/537.36 (KHTML, like Gecko) Chrome/124.0.0.0 Safari/537.36 Edg/124.0.0.0" etag="WtbvVCeDog6753ENN4BX" version="24.2.8" type="device">
  <diagram name="Page-1" id="radRVP0PUfPtL43AGEE-">
    <mxGraphModel dx="1427" dy="908" grid="1" gridSize="10" guides="1" tooltips="1" connect="1" arrows="1" fold="1" page="1" pageScale="1" pageWidth="850" pageHeight="1100" math="0" shadow="0">
      <root>
        <mxCell id="0" />
        <mxCell id="1" parent="0" />
        <mxCell id="d7sOpC0Rh_EtUCjQBN7f-1" value="AdminMenu" style="swimlane;fontStyle=1;align=center;verticalAlign=top;childLayout=stackLayout;horizontal=1;startSize=26;horizontalStack=0;resizeParent=1;resizeParentMax=0;resizeLast=0;collapsible=1;marginBottom=0;whiteSpace=wrap;html=1;" vertex="1" parent="1">
          <mxGeometry x="40" y="240" width="230" height="230" as="geometry" />
        </mxCell>
        <mxCell id="d7sOpC0Rh_EtUCjQBN7f-2" value="- accountService: AccountService" style="text;strokeColor=none;fillColor=none;align=left;verticalAlign=top;spacingLeft=4;spacingRight=4;overflow=hidden;rotatable=0;points=[[0,0.5],[1,0.5]];portConstraint=eastwest;whiteSpace=wrap;html=1;" vertex="1" parent="d7sOpC0Rh_EtUCjQBN7f-1">
          <mxGeometry y="26" width="230" height="26" as="geometry" />
        </mxCell>
        <mxCell id="d7sOpC0Rh_EtUCjQBN7f-3" value="" style="line;strokeWidth=1;fillColor=none;align=left;verticalAlign=middle;spacingTop=-1;spacingLeft=3;spacingRight=3;rotatable=0;labelPosition=right;points=[];portConstraint=eastwest;strokeColor=inherit;" vertex="1" parent="d7sOpC0Rh_EtUCjQBN7f-1">
          <mxGeometry y="52" width="230" height="8" as="geometry" />
        </mxCell>
        <mxCell id="d7sOpC0Rh_EtUCjQBN7f-4" value="+ runMenu(): void&lt;div&gt;- searchForAccount(): boolean&lt;/div&gt;&lt;div&gt;- displayAccountInfo(): void&lt;/div&gt;&lt;div&gt;- getExistAccountWithInputId(): Account&lt;/div&gt;&lt;div&gt;- updateAccount(): boolean&lt;/div&gt;&lt;div&gt;- deleteExistAccount(): boolean&lt;/div&gt;&lt;div&gt;- getAccountId(): int&lt;/div&gt;&lt;div&gt;- createNewAccount(): boolean&lt;/div&gt;&lt;div&gt;- getAccountDetails(): Account&lt;/div&gt;&lt;div&gt;- getOption(): int&lt;/div&gt;&lt;div&gt;- getStatus(): boolean&lt;/div&gt;&lt;div&gt;&lt;br&gt;&lt;/div&gt;" style="text;strokeColor=none;fillColor=none;align=left;verticalAlign=top;spacingLeft=4;spacingRight=4;overflow=hidden;rotatable=0;points=[[0,0.5],[1,0.5]];portConstraint=eastwest;whiteSpace=wrap;html=1;" vertex="1" parent="d7sOpC0Rh_EtUCjQBN7f-1">
          <mxGeometry y="60" width="230" height="170" as="geometry" />
        </mxCell>
        <mxCell id="d7sOpC0Rh_EtUCjQBN7f-5" value="ClientMenu" style="swimlane;fontStyle=1;align=center;verticalAlign=top;childLayout=stackLayout;horizontal=1;startSize=26;horizontalStack=0;resizeParent=1;resizeParentMax=0;resizeLast=0;collapsible=1;marginBottom=0;whiteSpace=wrap;html=1;" vertex="1" parent="1">
          <mxGeometry x="650" y="260" width="230" height="170" as="geometry" />
        </mxCell>
        <mxCell id="d7sOpC0Rh_EtUCjQBN7f-6" value="- accountService: AccountService" style="text;strokeColor=none;fillColor=none;align=left;verticalAlign=top;spacingLeft=4;spacingRight=4;overflow=hidden;rotatable=0;points=[[0,0.5],[1,0.5]];portConstraint=eastwest;whiteSpace=wrap;html=1;" vertex="1" parent="d7sOpC0Rh_EtUCjQBN7f-5">
          <mxGeometry y="26" width="230" height="26" as="geometry" />
        </mxCell>
        <mxCell id="d7sOpC0Rh_EtUCjQBN7f-7" value="" style="line;strokeWidth=1;fillColor=none;align=left;verticalAlign=middle;spacingTop=-1;spacingLeft=3;spacingRight=3;rotatable=0;labelPosition=right;points=[];portConstraint=eastwest;strokeColor=inherit;" vertex="1" parent="d7sOpC0Rh_EtUCjQBN7f-5">
          <mxGeometry y="52" width="230" height="8" as="geometry" />
        </mxCell>
        <mxCell id="d7sOpC0Rh_EtUCjQBN7f-8" value="+ runMenu(): void&lt;div&gt;- displayAccountBalance(): void&lt;/div&gt;&lt;div&gt;- depositCash(): boolean&lt;/div&gt;&lt;div&gt;- getDepositAmount(): String&lt;/div&gt;&lt;div&gt;- withdrawCash(): boolean&lt;/div&gt;&lt;div&gt;- getWithdrawAmount(): String&lt;/div&gt;&lt;div&gt;- getOption(): int&lt;/div&gt;&lt;div&gt;&lt;br&gt;&lt;/div&gt;" style="text;strokeColor=none;fillColor=none;align=left;verticalAlign=top;spacingLeft=4;spacingRight=4;overflow=hidden;rotatable=0;points=[[0,0.5],[1,0.5]];portConstraint=eastwest;whiteSpace=wrap;html=1;" vertex="1" parent="d7sOpC0Rh_EtUCjQBN7f-5">
          <mxGeometry y="60" width="230" height="110" as="geometry" />
        </mxCell>
        <mxCell id="d7sOpC0Rh_EtUCjQBN7f-9" value="Account" style="swimlane;fontStyle=1;align=center;verticalAlign=top;childLayout=stackLayout;horizontal=1;startSize=26;horizontalStack=0;resizeParent=1;resizeParentMax=0;resizeLast=0;collapsible=1;marginBottom=0;whiteSpace=wrap;html=1;" vertex="1" parent="1">
          <mxGeometry x="90" y="530" width="160" height="190" as="geometry" />
        </mxCell>
        <mxCell id="d7sOpC0Rh_EtUCjQBN7f-10" value="- id: int&lt;div&gt;- login: String&lt;/div&gt;&lt;div&gt;- pin: int&lt;/div&gt;&lt;div&gt;- holdersName: String&lt;/div&gt;&lt;div&gt;- balance: BigDecimal&lt;/div&gt;&lt;div&gt;- status: boolean&lt;/div&gt;&lt;div&gt;- role: boolean&lt;/div&gt;" style="text;strokeColor=none;fillColor=none;align=left;verticalAlign=top;spacingLeft=4;spacingRight=4;overflow=hidden;rotatable=0;points=[[0,0.5],[1,0.5]];portConstraint=eastwest;whiteSpace=wrap;html=1;" vertex="1" parent="d7sOpC0Rh_EtUCjQBN7f-9">
          <mxGeometry y="26" width="160" height="114" as="geometry" />
        </mxCell>
        <mxCell id="d7sOpC0Rh_EtUCjQBN7f-11" value="" style="line;strokeWidth=1;fillColor=none;align=left;verticalAlign=middle;spacingTop=-1;spacingLeft=3;spacingRight=3;rotatable=0;labelPosition=right;points=[];portConstraint=eastwest;strokeColor=inherit;" vertex="1" parent="d7sOpC0Rh_EtUCjQBN7f-9">
          <mxGeometry y="140" width="160" height="8" as="geometry" />
        </mxCell>
        <mxCell id="d7sOpC0Rh_EtUCjQBN7f-12" value="+ getCurrentRole(): Role&lt;div&gt;+ getCurrentStatus(): String&lt;/div&gt;" style="text;strokeColor=none;fillColor=none;align=left;verticalAlign=top;spacingLeft=4;spacingRight=4;overflow=hidden;rotatable=0;points=[[0,0.5],[1,0.5]];portConstraint=eastwest;whiteSpace=wrap;html=1;" vertex="1" parent="d7sOpC0Rh_EtUCjQBN7f-9">
          <mxGeometry y="148" width="160" height="42" as="geometry" />
        </mxCell>
        <mxCell id="d7sOpC0Rh_EtUCjQBN7f-13" value="Role (Enum)" style="swimlane;fontStyle=0;childLayout=stackLayout;horizontal=1;startSize=26;fillColor=none;horizontalStack=0;resizeParent=1;resizeParentMax=0;resizeLast=0;collapsible=1;marginBottom=0;whiteSpace=wrap;html=1;" vertex="1" parent="1">
          <mxGeometry x="100" y="770" width="140" height="78" as="geometry" />
        </mxCell>
        <mxCell id="d7sOpC0Rh_EtUCjQBN7f-14" value="+ Admin" style="text;strokeColor=none;fillColor=none;align=left;verticalAlign=top;spacingLeft=4;spacingRight=4;overflow=hidden;rotatable=0;points=[[0,0.5],[1,0.5]];portConstraint=eastwest;whiteSpace=wrap;html=1;" vertex="1" parent="d7sOpC0Rh_EtUCjQBN7f-13">
          <mxGeometry y="26" width="140" height="26" as="geometry" />
        </mxCell>
        <mxCell id="d7sOpC0Rh_EtUCjQBN7f-15" value="+ Client" style="text;strokeColor=none;fillColor=none;align=left;verticalAlign=top;spacingLeft=4;spacingRight=4;overflow=hidden;rotatable=0;points=[[0,0.5],[1,0.5]];portConstraint=eastwest;whiteSpace=wrap;html=1;" vertex="1" parent="d7sOpC0Rh_EtUCjQBN7f-13">
          <mxGeometry y="52" width="140" height="26" as="geometry" />
        </mxCell>
        <mxCell id="d7sOpC0Rh_EtUCjQBN7f-17" value="«interface»&lt;br&gt;&lt;b&gt;AccountRepository&lt;/b&gt;" style="html=1;whiteSpace=wrap;" vertex="1" parent="1">
          <mxGeometry x="370" y="550" width="195" height="50" as="geometry" />
        </mxCell>
        <mxCell id="d7sOpC0Rh_EtUCjQBN7f-23" value="+ findByLoginAndPin(): Account&lt;div&gt;+ updateAccountBy(): void&lt;/div&gt;" style="html=1;whiteSpace=wrap;align=left;" vertex="1" parent="1">
          <mxGeometry x="370" y="600" width="195" height="50" as="geometry" />
        </mxCell>
        <mxCell id="d7sOpC0Rh_EtUCjQBN7f-25" value="AccountService" style="swimlane;fontStyle=1;align=center;verticalAlign=top;childLayout=stackLayout;horizontal=1;startSize=26;horizontalStack=0;resizeParent=1;resizeParentMax=0;resizeLast=0;collapsible=1;marginBottom=0;whiteSpace=wrap;html=1;" vertex="1" parent="1">
          <mxGeometry x="360" y="270" width="190" height="160" as="geometry" />
        </mxCell>
        <mxCell id="d7sOpC0Rh_EtUCjQBN7f-26" value="- AccountRepository" style="text;strokeColor=none;fillColor=none;align=left;verticalAlign=top;spacingLeft=4;spacingRight=4;overflow=hidden;rotatable=0;points=[[0,0.5],[1,0.5]];portConstraint=eastwest;whiteSpace=wrap;html=1;" vertex="1" parent="d7sOpC0Rh_EtUCjQBN7f-25">
          <mxGeometry y="26" width="190" height="26" as="geometry" />
        </mxCell>
        <mxCell id="d7sOpC0Rh_EtUCjQBN7f-27" value="" style="line;strokeWidth=1;fillColor=none;align=left;verticalAlign=middle;spacingTop=-1;spacingLeft=3;spacingRight=3;rotatable=0;labelPosition=right;points=[];portConstraint=eastwest;strokeColor=inherit;" vertex="1" parent="d7sOpC0Rh_EtUCjQBN7f-25">
          <mxGeometry y="52" width="190" height="8" as="geometry" />
        </mxCell>
        <mxCell id="d7sOpC0Rh_EtUCjQBN7f-28" value="+ checkLogin(): Account&lt;div&gt;+ getAccountById(): Account&lt;/div&gt;&lt;div&gt;+ setBalance(): BigDecimal&lt;/div&gt;&lt;div&gt;+ addNewAccount(): int&lt;/div&gt;&lt;div&gt;+ updateAccount(): int&lt;/div&gt;&lt;div&gt;+ deleteAccount(): boolean&lt;/div&gt;" style="text;strokeColor=none;fillColor=none;align=left;verticalAlign=top;spacingLeft=4;spacingRight=4;overflow=hidden;rotatable=0;points=[[0,0.5],[1,0.5]];portConstraint=eastwest;whiteSpace=wrap;html=1;" vertex="1" parent="d7sOpC0Rh_EtUCjQBN7f-25">
          <mxGeometry y="60" width="190" height="100" as="geometry" />
        </mxCell>
        <mxCell id="d7sOpC0Rh_EtUCjQBN7f-29" value="ATMApplication" style="swimlane;fontStyle=1;align=center;verticalAlign=top;childLayout=stackLayout;horizontal=1;startSize=26;horizontalStack=0;resizeParent=1;resizeParentMax=0;resizeLast=0;collapsible=1;marginBottom=0;whiteSpace=wrap;html=1;" vertex="1" parent="1">
          <mxGeometry x="360" y="50" width="160" height="90" as="geometry" />
        </mxCell>
        <mxCell id="d7sOpC0Rh_EtUCjQBN7f-31" value="" style="line;strokeWidth=1;fillColor=none;align=left;verticalAlign=middle;spacingTop=-1;spacingLeft=3;spacingRight=3;rotatable=0;labelPosition=right;points=[];portConstraint=eastwest;strokeColor=inherit;" vertex="1" parent="d7sOpC0Rh_EtUCjQBN7f-29">
          <mxGeometry y="26" width="160" height="8" as="geometry" />
        </mxCell>
        <mxCell id="d7sOpC0Rh_EtUCjQBN7f-32" value="+ main(): void&lt;div&gt;+ checkLogin(): boolean&lt;/div&gt;&lt;div&gt;+ getLoginInfo(): String[]&lt;/div&gt;" style="text;strokeColor=none;fillColor=none;align=left;verticalAlign=top;spacingLeft=4;spacingRight=4;overflow=hidden;rotatable=0;points=[[0,0.5],[1,0.5]];portConstraint=eastwest;whiteSpace=wrap;html=1;" vertex="1" parent="d7sOpC0Rh_EtUCjQBN7f-29">
          <mxGeometry y="34" width="160" height="56" as="geometry" />
        </mxCell>
        <mxCell id="d7sOpC0Rh_EtUCjQBN7f-33" value="" style="edgeStyle=segmentEdgeStyle;endArrow=classic;html=1;curved=0;rounded=0;endSize=8;startSize=8;entryX=0.652;entryY=0;entryDx=0;entryDy=0;entryPerimeter=0;" edge="1" parent="1" target="d7sOpC0Rh_EtUCjQBN7f-1">
          <mxGeometry width="50" height="50" relative="1" as="geometry">
            <mxPoint x="360" y="110" as="sourcePoint" />
            <mxPoint x="190" y="230" as="targetPoint" />
          </mxGeometry>
        </mxCell>
        <mxCell id="d7sOpC0Rh_EtUCjQBN7f-34" value="" style="edgeStyle=segmentEdgeStyle;endArrow=classic;html=1;curved=0;rounded=0;endSize=8;startSize=8;entryX=0.304;entryY=0;entryDx=0;entryDy=0;entryPerimeter=0;" edge="1" parent="1" target="d7sOpC0Rh_EtUCjQBN7f-5">
          <mxGeometry width="50" height="50" relative="1" as="geometry">
            <mxPoint x="520" y="110" as="sourcePoint" />
            <mxPoint x="570" y="60" as="targetPoint" />
          </mxGeometry>
        </mxCell>
        <mxCell id="d7sOpC0Rh_EtUCjQBN7f-35" value="" style="endArrow=classic;html=1;rounded=0;entryX=0.425;entryY=0;entryDx=0;entryDy=0;entryPerimeter=0;exitX=0.507;exitY=1.023;exitDx=0;exitDy=0;exitPerimeter=0;" edge="1" parent="1" source="d7sOpC0Rh_EtUCjQBN7f-32" target="d7sOpC0Rh_EtUCjQBN7f-25">
          <mxGeometry width="50" height="50" relative="1" as="geometry">
            <mxPoint x="439.66" y="150" as="sourcePoint" />
            <mxPoint x="439.66" y="210" as="targetPoint" />
          </mxGeometry>
        </mxCell>
        <mxCell id="d7sOpC0Rh_EtUCjQBN7f-37" value="" style="endArrow=classic;html=1;rounded=0;entryX=0;entryY=0.5;entryDx=0;entryDy=0;exitX=1;exitY=0.471;exitDx=0;exitDy=0;exitPerimeter=0;" edge="1" parent="1" source="d7sOpC0Rh_EtUCjQBN7f-4" target="d7sOpC0Rh_EtUCjQBN7f-28">
          <mxGeometry width="50" height="50" relative="1" as="geometry">
            <mxPoint x="290" y="380" as="sourcePoint" />
            <mxPoint x="340" y="330" as="targetPoint" />
          </mxGeometry>
        </mxCell>
        <mxCell id="d7sOpC0Rh_EtUCjQBN7f-38" value="1" style="text;strokeColor=none;fillColor=none;align=left;verticalAlign=middle;spacingLeft=4;spacingRight=4;overflow=hidden;points=[[0,0.5],[1,0.5]];portConstraint=eastwest;rotatable=0;whiteSpace=wrap;html=1;" vertex="1" parent="1">
          <mxGeometry x="270" y="350" width="20" height="30" as="geometry" />
        </mxCell>
        <mxCell id="d7sOpC0Rh_EtUCjQBN7f-39" value="1" style="text;strokeColor=none;fillColor=none;align=left;verticalAlign=middle;spacingLeft=4;spacingRight=4;overflow=hidden;points=[[0,0.5],[1,0.5]];portConstraint=eastwest;rotatable=0;whiteSpace=wrap;html=1;" vertex="1" parent="1">
          <mxGeometry x="340" y="350" width="20" height="30" as="geometry" />
        </mxCell>
        <mxCell id="d7sOpC0Rh_EtUCjQBN7f-40" value="" style="endArrow=classic;html=1;rounded=0;exitX=-0.003;exitY=0.309;exitDx=0;exitDy=0;exitPerimeter=0;" edge="1" parent="1" source="d7sOpC0Rh_EtUCjQBN7f-8">
          <mxGeometry width="50" height="50" relative="1" as="geometry">
            <mxPoint x="600" y="354.83" as="sourcePoint" />
            <mxPoint x="550" y="354.83" as="targetPoint" />
          </mxGeometry>
        </mxCell>
        <mxCell id="d7sOpC0Rh_EtUCjQBN7f-41" value="1" style="text;strokeColor=none;fillColor=none;align=left;verticalAlign=middle;spacingLeft=4;spacingRight=4;overflow=hidden;points=[[0,0.5],[1,0.5]];portConstraint=eastwest;rotatable=0;whiteSpace=wrap;html=1;" vertex="1" parent="1">
          <mxGeometry x="630" y="330" width="20" height="30" as="geometry" />
        </mxCell>
        <mxCell id="d7sOpC0Rh_EtUCjQBN7f-42" value="1" style="text;strokeColor=none;fillColor=none;align=left;verticalAlign=middle;spacingLeft=4;spacingRight=4;overflow=hidden;points=[[0,0.5],[1,0.5]];portConstraint=eastwest;rotatable=0;whiteSpace=wrap;html=1;" vertex="1" parent="1">
          <mxGeometry x="550" y="330" width="20" height="30" as="geometry" />
        </mxCell>
        <mxCell id="d7sOpC0Rh_EtUCjQBN7f-43" value="1" style="text;strokeColor=none;fillColor=none;align=left;verticalAlign=middle;spacingLeft=4;spacingRight=4;overflow=hidden;points=[[0,0.5],[1,0.5]];portConstraint=eastwest;rotatable=0;whiteSpace=wrap;html=1;" vertex="1" parent="1">
          <mxGeometry x="440" y="140" width="20" height="30" as="geometry" />
        </mxCell>
        <mxCell id="d7sOpC0Rh_EtUCjQBN7f-44" value="1" style="text;strokeColor=none;fillColor=none;align=left;verticalAlign=middle;spacingLeft=4;spacingRight=4;overflow=hidden;points=[[0,0.5],[1,0.5]];portConstraint=eastwest;rotatable=0;whiteSpace=wrap;html=1;" vertex="1" parent="1">
          <mxGeometry x="440" y="240" width="20" height="30" as="geometry" />
        </mxCell>
        <mxCell id="d7sOpC0Rh_EtUCjQBN7f-45" value="" style="endArrow=classic;html=1;rounded=0;entryX=0.5;entryY=0;entryDx=0;entryDy=0;exitX=0.565;exitY=1.016;exitDx=0;exitDy=0;exitPerimeter=0;" edge="1" parent="1" source="d7sOpC0Rh_EtUCjQBN7f-28" target="d7sOpC0Rh_EtUCjQBN7f-17">
          <mxGeometry width="50" height="50" relative="1" as="geometry">
            <mxPoint x="470" y="430" as="sourcePoint" />
            <mxPoint x="480" y="470" as="targetPoint" />
          </mxGeometry>
        </mxCell>
        <mxCell id="d7sOpC0Rh_EtUCjQBN7f-46" value="" style="endArrow=classic;html=1;rounded=0;exitX=0.017;exitY=0.999;exitDx=0;exitDy=0;exitPerimeter=0;" edge="1" parent="1" source="d7sOpC0Rh_EtUCjQBN7f-28">
          <mxGeometry width="50" height="50" relative="1" as="geometry">
            <mxPoint x="290" y="620" as="sourcePoint" />
            <mxPoint x="250" y="530" as="targetPoint" />
          </mxGeometry>
        </mxCell>
        <mxCell id="d7sOpC0Rh_EtUCjQBN7f-47" value="1" style="text;strokeColor=none;fillColor=none;align=left;verticalAlign=middle;spacingLeft=4;spacingRight=4;overflow=hidden;points=[[0,0.5],[1,0.5]];portConstraint=eastwest;rotatable=0;whiteSpace=wrap;html=1;" vertex="1" parent="1">
          <mxGeometry x="340" y="420" width="20" height="30" as="geometry" />
        </mxCell>
        <mxCell id="d7sOpC0Rh_EtUCjQBN7f-49" value="*" style="text;strokeColor=none;fillColor=none;align=left;verticalAlign=middle;spacingLeft=4;spacingRight=4;overflow=hidden;points=[[0,0.5],[1,0.5]];portConstraint=eastwest;rotatable=0;whiteSpace=wrap;html=1;" vertex="1" parent="1">
          <mxGeometry x="250" y="500" width="20" height="30" as="geometry" />
        </mxCell>
        <mxCell id="d7sOpC0Rh_EtUCjQBN7f-50" value="" style="endArrow=classic;html=1;rounded=0;entryX=0.853;entryY=-0.005;entryDx=0;entryDy=0;entryPerimeter=0;" edge="1" parent="1">
          <mxGeometry width="50" height="50" relative="1" as="geometry">
            <mxPoint x="180" y="720" as="sourcePoint" />
            <mxPoint x="179.99999999999994" y="770.0000000000001" as="targetPoint" />
          </mxGeometry>
        </mxCell>
        <mxCell id="d7sOpC0Rh_EtUCjQBN7f-51" value="1" style="text;strokeColor=none;fillColor=none;align=left;verticalAlign=middle;spacingLeft=4;spacingRight=4;overflow=hidden;points=[[0,0.5],[1,0.5]];portConstraint=eastwest;rotatable=0;whiteSpace=wrap;html=1;" vertex="1" parent="1">
          <mxGeometry x="470" y="430" width="20" height="30" as="geometry" />
        </mxCell>
        <mxCell id="d7sOpC0Rh_EtUCjQBN7f-52" value="1" style="text;strokeColor=none;fillColor=none;align=left;verticalAlign=middle;spacingLeft=4;spacingRight=4;overflow=hidden;points=[[0,0.5],[1,0.5]];portConstraint=eastwest;rotatable=0;whiteSpace=wrap;html=1;" vertex="1" parent="1">
          <mxGeometry x="470" y="520" width="20" height="30" as="geometry" />
        </mxCell>
        <mxCell id="d7sOpC0Rh_EtUCjQBN7f-53" value="1" style="text;strokeColor=none;fillColor=none;align=left;verticalAlign=middle;spacingLeft=4;spacingRight=4;overflow=hidden;points=[[0,0.5],[1,0.5]];portConstraint=eastwest;rotatable=0;whiteSpace=wrap;html=1;" vertex="1" parent="1">
          <mxGeometry x="340" y="80" width="20" height="30" as="geometry" />
        </mxCell>
        <mxCell id="d7sOpC0Rh_EtUCjQBN7f-55" value="1" style="text;strokeColor=none;fillColor=none;align=left;verticalAlign=middle;spacingLeft=4;spacingRight=4;overflow=hidden;points=[[0,0.5],[1,0.5]];portConstraint=eastwest;rotatable=0;whiteSpace=wrap;html=1;" vertex="1" parent="1">
          <mxGeometry x="170" y="200" width="20" height="30" as="geometry" />
        </mxCell>
        <mxCell id="d7sOpC0Rh_EtUCjQBN7f-56" value="1" style="text;strokeColor=none;fillColor=none;align=left;verticalAlign=middle;spacingLeft=4;spacingRight=4;overflow=hidden;points=[[0,0.5],[1,0.5]];portConstraint=eastwest;rotatable=0;whiteSpace=wrap;html=1;" vertex="1" parent="1">
          <mxGeometry x="520" y="80" width="20" height="30" as="geometry" />
        </mxCell>
        <mxCell id="d7sOpC0Rh_EtUCjQBN7f-57" value="1" style="text;strokeColor=none;fillColor=none;align=left;verticalAlign=middle;spacingLeft=4;spacingRight=4;overflow=hidden;points=[[0,0.5],[1,0.5]];portConstraint=eastwest;rotatable=0;whiteSpace=wrap;html=1;" vertex="1" parent="1">
          <mxGeometry x="720" y="230" width="20" height="30" as="geometry" />
        </mxCell>
      </root>
    </mxGraphModel>
  </diagram>
</mxfile>
